<svg xmlns="http://www.w3.org/2000/svg" xmlns:xlink="http://www.w3.org/1999/xlink" id="Livello_1" x="0px" y="0px" width="82.333px" height="82.833px" viewBox="0 0 82.333 82.833" xml:space="preserve"><path fill="#008F4C" d="M15.006,63.362c-1.126,0-2.208,0.28-3.168,0.808c-5.057-6.481-7.832-14.534-7.832-22.783  c0-20.432,16.623-37.055,37.056-37.055c2.484,0,4.968,0.247,7.38,0.734c0.85,0.172,1.678-0.377,1.851-1.228  c0.172-0.85-0.378-1.678-1.228-1.85c-2.617-0.529-5.31-0.797-8.003-0.797c-10.737,0-20.831,4.182-28.423,11.773  C5.047,20.556,0.866,30.651,0.866,41.387c0,9.032,3.067,17.847,8.65,24.911c-0.719,1.075-1.105,2.337-1.105,3.659  c0,1.761,0.686,3.417,1.932,4.662c1.245,1.245,2.901,1.932,4.663,1.932c1.761,0,3.417-0.687,4.663-1.932  c1.245-1.245,1.931-2.902,1.931-4.663c0-1.762-0.686-3.418-1.931-4.663C18.423,64.047,16.767,63.362,15.006,63.362"></path><path fill="#008F4C" d="M72.607,16.474c1.707-2.561,1.432-6.062-0.825-8.319c-1.246-1.245-2.901-1.932-4.664-1.932  c-1.761,0-3.417,0.687-4.663,1.932c-1.244,1.246-1.931,2.901-1.931,4.663c0,1.762,0.687,3.418,1.931,4.663  c1.246,1.246,2.902,1.932,4.663,1.932c1.126,0,2.208-0.281,3.168-0.809c5.056,6.483,7.831,14.534,7.831,22.783  c0,20.433-16.622,37.056-37.055,37.056c-2.46,0-4.919-0.242-7.309-0.722c-0.85-0.168-1.678,0.383-1.848,1.232  c-0.17,0.852,0.381,1.678,1.231,1.848c2.593,0.519,5.26,0.781,7.926,0.781c10.736,0,20.83-4.181,28.423-11.773  c7.592-7.592,11.772-17.686,11.772-28.422C81.258,32.355,78.191,23.541,72.607,16.474 M64.676,15.261  c-0.651-0.651-1.012-1.52-1.012-2.442c0-0.922,0.36-1.789,1.012-2.442c0.652-0.653,1.521-1.012,2.442-1.012  c0.923,0,1.791,0.359,2.442,1.012c1.348,1.347,1.348,3.538,0,4.885c-0.651,0.652-1.52,1.013-2.442,1.013  C66.196,16.273,65.328,15.913,64.676,15.261"></path><path fill="#008F4C" d="M34.582,68.395c0,0.866,0.704,1.569,1.571,1.569h9.817c0.867,0,1.57-0.703,1.57-1.569v-3.044  c2.064-0.557,4.038-1.374,5.893-2.443l2.149,2.15c0.294,0.294,0.694,0.46,1.111,0.46c0.415,0,0.815-0.166,1.11-0.461l6.938-6.944  c0.612-0.613,0.612-1.607,0-2.221l-2.146-2.146c1.067-1.854,1.886-3.829,2.441-5.893h3.032c0.866,0,1.569-0.703,1.569-1.571v-9.818  c0-0.867-0.703-1.569-1.569-1.569h-3.033c-0.556-2.064-1.373-4.038-2.44-5.893l2.133-2.135c0.296-0.294,0.461-0.694,0.461-1.111  c0-0.416-0.166-0.816-0.461-1.11l-6.944-6.94c-0.612-0.613-1.606-0.613-2.22,0.001l-2.133,2.132  c-1.854-1.068-3.828-1.886-5.893-2.442V14.38c0-0.867-0.703-1.57-1.57-1.57h-9.817c-0.867,0-1.571,0.703-1.571,1.57v3.017  c-2.064,0.555-4.037,1.373-5.892,2.441l-2.133-2.132c-0.612-0.613-1.606-0.614-2.22-0.001l-6.944,6.94  c-0.295,0.294-0.461,0.694-0.461,1.11c0,0.417,0.166,0.817,0.46,1.111l2.135,2.135c-1.068,1.855-1.887,3.828-2.442,5.893h-3.027  c-0.867,0-1.57,0.702-1.57,1.569l-0.006,9.818c0,0.416,0.165,0.816,0.46,1.111c0.294,0.294,0.694,0.46,1.111,0.46h3.032  c0.555,2.063,1.374,4.038,2.442,5.893l-2.146,2.146c-0.613,0.613-0.614,1.607,0,2.221l6.939,6.944  c0.295,0.295,0.693,0.461,1.11,0.461s0.816-0.166,1.111-0.46l2.148-2.15c1.856,1.069,3.829,1.887,5.893,2.443V68.395z   M29.305,59.605c-0.621-0.401-1.438-0.314-1.962,0.208l-1.913,1.913l-4.719-4.724l1.91-1.912c0.523-0.522,0.61-1.34,0.208-1.961  c-1.423-2.203-2.424-4.617-2.974-7.178c-0.155-0.723-0.795-1.24-1.535-1.24h-2.697l0.004-6.678h2.693c0.74,0,1.38-0.517,1.535-1.241  c0.55-2.559,1.551-4.974,2.974-7.177c0.402-0.621,0.315-1.439-0.208-1.962l-1.898-1.898l4.724-4.72l1.896,1.897  c0.524,0.522,1.34,0.608,1.962,0.208c2.203-1.423,4.618-2.424,7.178-2.975c0.723-0.156,1.24-0.795,1.24-1.535V15.95H44.4v2.681  c0,0.741,0.517,1.38,1.24,1.536c2.56,0.55,4.975,1.55,7.178,2.975c0.621,0.4,1.439,0.314,1.962-0.209l1.897-1.896l4.723,4.72  l-1.898,1.897c-0.523,0.524-0.609,1.342-0.208,1.963c1.423,2.203,2.425,4.618,2.974,7.177c0.156,0.724,0.795,1.241,1.535,1.241  h2.698v6.678h-2.698c-0.74,0-1.379,0.518-1.535,1.24c-0.549,2.559-1.551,4.975-2.974,7.178c-0.401,0.621-0.315,1.438,0.208,1.961  l1.91,1.91l-4.72,4.725l-1.911-1.912c-0.523-0.523-1.342-0.609-1.963-0.208c-2.203,1.424-4.618,2.424-7.178,2.974  c-0.724,0.156-1.24,0.795-1.24,1.535v2.71h-6.677v-2.71c0-0.739-0.517-1.379-1.24-1.535C33.923,62.03,31.508,61.029,29.305,59.605"></path><path fill="#008F4C" d="M54.036,41.387c0-7.153-5.82-12.974-12.974-12.974s-12.974,5.82-12.974,12.974  c0,7.154,5.82,12.975,12.974,12.975S54.036,48.541,54.036,41.387 M31.228,41.387c0-5.422,4.412-9.833,9.834-9.833  c5.422,0,9.834,4.411,9.834,9.833c0,5.423-4.412,9.835-9.834,9.835C35.64,51.222,31.228,46.81,31.228,41.387"></path><path fill="#008F4C" d="M55.52,7.129c0.414,0,0.818-0.168,1.11-0.46c0.292-0.293,0.46-0.698,0.46-1.111  c0-0.411-0.168-0.816-0.46-1.11c-0.292-0.292-0.696-0.46-1.11-0.46s-0.817,0.168-1.109,0.46c-0.292,0.294-0.46,0.698-0.46,1.11  c0,0.415,0.168,0.818,0.46,1.111C54.702,6.961,55.105,7.129,55.52,7.129"></path><path fill="#008F4C" d="M26.673,75.673c-0.413,0-0.818,0.168-1.11,0.461c-0.292,0.291-0.46,0.697-0.46,1.109  c0,0.415,0.168,0.819,0.46,1.111c0.292,0.291,0.697,0.46,1.11,0.46s0.818-0.169,1.11-0.46c0.292-0.292,0.46-0.698,0.46-1.111  c0-0.412-0.168-0.818-0.46-1.109C27.491,75.841,27.086,75.673,26.673,75.673"></path></svg>