<svg xmlns="http://www.w3.org/2000/svg" xmlns:xlink="http://www.w3.org/1999/xlink" id="Livello_1" x="0px" y="0px" width="75.791px" height="75.999px" viewBox="0 0 75.791 75.999" xml:space="preserve"><path fill="#008F4C" d="M0.561,7.354l6.035,6.035l1.172,4.687c0.055,0.221,0.169,0.422,0.33,0.583l3.188,3.188  c-0.524,0.791-0.862,1.691-0.987,2.632c-5.417,2.638-8.853,8.138-8.849,14.164v12.733c0.007,5.571,3.195,10.649,8.209,13.077  L8.274,66.76H1.449c-0.694,0-1.257,0.562-1.257,1.256v6.28c0,0.694,0.563,1.257,1.257,1.257h43.964c0.694,0,1.257-0.563,1.257-1.257  v-6.28c0-0.694-0.563-1.256-1.257-1.256H29.084v-8.793h5.024c0.135,0,0.27-0.021,0.397-0.064l11.305-3.768  c0.514-0.172,0.859-0.651,0.859-1.192v-1.256h11.305c0.694,0,1.257-0.563,1.257-1.257v-5.024c0-0.694-0.563-1.256-1.257-1.256  H17.778c-0.693,0-1.256,0.562-1.256,1.256v5.024c0,0.693,0.563,1.257,1.256,1.257h1.257v2.512h-2.513  c-0.441,0-0.85,0.231-1.077,0.61l-1.091,1.817c-2.381-0.442-4.109-2.518-4.112-4.939V40.381c0.001-1.387,1.125-2.511,2.512-2.513  h5.024c0.694,0,1.257-0.562,1.257-1.256v-5.55c0.33-0.146,0.647-0.318,0.948-0.519l4.443,4.444c0.236,0.236,0.556,0.368,0.889,0.368  v2.512c0,0.333,0.133,0.653,0.368,0.889l1.256,1.255c0.235,0.236,0.556,0.369,0.888,0.369h2.513c0.333,0,0.652-0.133,0.889-0.369  l1.256-1.255c0.235-0.235,0.368-0.556,0.368-0.889v-3.248l1.624,1.624c0.235,0.236,0.555,0.368,0.888,0.368h1.256  c0.334,0,0.653-0.132,0.889-0.368l2.513-2.512c0.235-0.236,0.367-0.555,0.367-0.889v-1.255c0-0.333-0.132-0.653-0.367-0.889  l-4.657-4.656v-0.736c0-0.333-0.132-0.653-0.367-0.888l-16.33-16.33c-0.161-0.161-0.363-0.274-0.584-0.33l-4.687-1.172L7.361,0.553  c-0.491-0.49-1.285-0.49-1.776,0L0.561,5.578C0.07,6.068,0.07,6.864,0.561,7.354 M44.157,73.041H2.706v-3.768h41.451V73.041z   M44.157,52.037l-10.253,3.418h-4.82v-3.768h15.073V52.037z M19.035,46.662H56.72v2.512H19.035V46.662z M21.547,51.687h5.024V66.76  H24.06V55.455c0-0.694-0.563-1.256-1.257-1.256h-1.256V51.687z M17.233,56.71h4.313v10.05H11.204L17.233,56.71z M16.522,35.357  h-3.769c-2.773,0.003-5.021,2.251-5.024,5.024v11.306c0.004,3.29,2.139,6.198,5.275,7.188l-2.049,3.414  c-4.258-1.964-6.988-6.223-6.995-10.913V38.643c-0.003-4.713,2.5-9.072,6.572-11.444c0.828,2.611,3.25,4.386,5.989,4.39V35.357z   M16.522,29.076c-2.081,0-3.769-1.687-3.769-3.768s1.688-3.769,3.769-3.769s3.768,1.688,3.768,3.769  C20.288,27.388,18.603,29.074,16.522,29.076 M32.853,28.556l-4.289,4.288h-2.728l7.017-7.016V28.556z M29.819,37.869h-1.472  l-0.521-0.52v-1.992h1.257c0.333,0,0.652-0.132,0.888-0.368l0.368-0.368v2.728L29.819,37.869z M37.877,32.324l-1.776,1.777h-0.216  l-2.513-2.512l1.625-1.624c0.125-0.128,0.225-0.281,0.286-0.449l2.594,2.593V32.324z M31.076,24.05l-7.017,7.018l-2.3-2.299  c1.914-2.89,1.122-6.785-1.768-8.698c-2.101-1.392-4.831-1.392-6.931,0l-2.941-2.942l-1-3.997l4.02-4.019l3.997,1L31.076,24.05z   M6.474,3.217l4.504,4.504L7.729,10.97L3.226,6.465L6.474,3.217z"></path><path fill="#008F4C" d="M60.487,21.539v2.514c0.693,0,1.256,0.562,1.256,1.256c0,0.693-0.563,1.256-1.256,1.256  c-0.694,0-1.256-0.563-1.256-1.256h-2.514c0,2.081,1.688,3.768,3.77,3.768s3.769-1.687,3.769-3.768  C64.256,23.226,62.568,21.539,60.487,21.539"></path><path fill="#008F4C" d="M60.487,10.234c-8.326,0.001-15.075,6.752-15.074,15.078c0.001,2.584,0.665,5.124,1.93,7.378l-3.084,7.196  c-0.273,0.638,0.022,1.377,0.66,1.649c0.316,0.135,0.674,0.135,0.989,0l7.197-3.084c7.259,4.076,16.446,1.497,20.524-5.762  c4.076-7.259,1.497-16.448-5.762-20.525C65.614,10.899,63.072,10.234,60.487,10.234 M60.487,37.869  c-2.343,0.002-4.639-0.652-6.628-1.89c-0.349-0.216-0.781-0.25-1.158-0.088l-4.897,2.099l2.1-4.896  c0.162-0.378,0.129-0.811-0.088-1.159c-3.66-5.894-1.851-13.639,4.043-17.299c5.894-3.661,13.639-1.85,17.299,4.043  c3.661,5.894,1.852,13.638-4.043,17.299C65.125,37.214,62.829,37.869,60.487,37.869"></path></svg>