<svg xmlns="http://www.w3.org/2000/svg" xmlns:xlink="http://www.w3.org/1999/xlink" id="Livello_1" x="0px" y="0px" width="68.25px" height="68px" viewBox="0 0 68.25 68" xml:space="preserve"><path fill="#FFFFFF" d="M93.001,34.852"></path><path fill="#FFFFFF" d="M34.001-24.148"></path><path fill="#FFFFFF" d="M34.001,93.852"></path><path fill="#FFFFFF" d="M93.001,34.852"></path><rect x="7.384" y="22.048" fill="#008F4C" width="4.311" height="2.155"></rect><path fill="#008F4C" d="M64.491,17.738c1.782,0,3.232-1.451,3.232-3.233V3.73c0-1.782-1.45-3.233-3.232-3.233H49.406  c-1.782,0-3.232,1.451-3.232,3.233v10.775c0,1.782,1.45,3.233,3.232,3.233h3.232v2.155h-2.155v2.155h5.388v10.774h-4.446  c-0.86-0.838-1.919-1.481-3.104-1.834c0.006-0.109,0.008-0.215,0.008-0.32c0-4.753-3.867-8.62-8.62-8.62  c-2.949,0-5.689,1.534-7.26,3.987c-1.106-0.496-2.303-0.755-3.516-0.755c-3.576,0-6.796,2.254-8.056,5.56  c-0.817,0.176-1.581,0.491-2.274,0.905h-7.987v-3.233h4.31c1.782,0,3.232-1.45,3.232-3.232V3.73c0-1.782-1.45-3.233-3.232-3.233  H4.151c-1.782,0-3.233,1.451-3.233,3.233v21.55c0,1.782,1.451,3.232,3.233,3.232h4.31V33.9h7.852  c-0.459,0.654-0.814,1.376-1.048,2.155h-4.648v11.854H6.306c-1.781,0-3.232,1.451-3.232,3.231v9.698H0.918v3.232  c0,1.781,1.451,3.232,3.233,3.232h17.24c1.781,0,3.232-1.451,3.232-3.232v-3.232h-2.155V51.14c0-1.78-1.451-3.231-3.232-3.231  h-6.465V38.21h2.154c0,4.157,3.385,7.543,7.543,7.543h23.705c3.792,0,6.93-2.817,7.456-6.466h4.396v8.621h-7.543v19.395h17.24  V47.908h-7.542V37.133h-6.556c-0.112-0.76-0.345-1.48-0.67-2.155h5.07v-12.93h5.388v-2.155h-2.155v-2.155H64.491z M16.004,17.738  H3.073V6.963h12.931V17.738z M4.151,2.653h10.774c0.596,0,1.078,0.482,1.078,1.077v1.077H3.073V3.73  C3.073,3.135,3.557,2.653,4.151,2.653 M3.073,25.28v-5.387h12.931v5.387c0,0.595-0.482,1.078-1.078,1.078H4.151  C3.557,26.358,3.073,25.875,3.073,25.28 M22.469,64.07c0,0.594-0.483,1.078-1.077,1.078H4.151c-0.595,0-1.078-0.484-1.078-1.078  v-1.078h19.396V64.07z M20.313,51.14v9.698H5.229V51.14c0-0.594,0.483-1.077,1.077-1.077h12.931  C19.831,50.063,20.313,50.546,20.313,51.14 M52.639,58.683H65.57v6.465H52.639V58.683z M65.569,56.527H52.638v-6.465h12.932V56.527z   M46.174,43.598H22.469c-2.971,0-5.388-2.417-5.388-5.388c0-2.724,2.039-5.021,4.741-5.344l0.707-0.085l0.199-0.685  c0.797-2.744,3.35-4.661,6.205-4.661c1.189,0,2.357,0.334,3.381,0.965l1.029,0.634l0.512-1.096c1.062-2.27,3.359-3.736,5.854-3.736  c3.565,0,6.465,2.9,6.465,6.466c0,0.297-0.027,0.613-0.085,0.996l-0.163,1.066l1.065,0.162c2.605,0.397,4.571,2.685,4.571,5.318  C51.563,41.181,49.145,43.598,46.174,43.598 M49.406,2.653h15.085c0.595,0,1.078,0.482,1.078,1.077v7.543h-17.24V3.73  C48.329,3.135,48.813,2.653,49.406,2.653 M48.329,14.505v-1.078h17.24v1.078c0,0.594-0.483,1.078-1.078,1.078H49.406  C48.813,15.583,48.329,15.099,48.329,14.505 M59.104,19.893h-4.31v-2.155h4.31V19.893z"></path><rect x="54.794" y="52.218" fill="#008F4C" width="2.155" height="2.155"></rect><rect x="61.259" y="60.838" fill="#008F4C" width="2.155" height="2.154"></rect><rect x="59.104" y="52.218" fill="#008F4C" width="4.312" height="2.155"></rect><rect x="54.794" y="60.838" fill="#008F4C" width="4.31" height="2.154"></rect></svg>