<svg xmlns="http://www.w3.org/2000/svg" xmlns:xlink="http://www.w3.org/1999/xlink" id="Livello_1" x="0px" y="0px" width="79.417px" height="79.075px" viewBox="0 0 79.417 79.075" xml:space="preserve"><path fill="#008F4C" d="M71.172,42.831V18.198c4.254-0.613,7.535-4.272,7.535-8.692c0-4.848-3.943-8.793-8.793-8.793  c-4.848,0-8.793,3.945-8.793,8.793H0.828v50.246h37.748c0.653,10.496,9.377,18.842,20.034,18.842  c11.082,0,20.098-9.017,20.098-20.099C78.707,52.166,75.76,46.519,71.172,42.831 M69.914,3.226c3.465,0,6.281,2.817,6.281,6.281  c0,3.463-2.816,6.281-6.281,6.281c-3.463,0-6.279-2.817-6.279-6.281C63.635,6.042,66.451,3.226,69.914,3.226 M3.34,12.019h58.152  c0.301,1.002,0.778,1.926,1.392,2.745l-7.683,7.682c-0.492-0.236-1.035-0.378-1.615-0.378c-0.581,0-1.123,0.142-1.614,0.378  l-2.532-2.531c0.235-0.492,0.377-1.035,0.377-1.615c0-2.078-1.691-3.769-3.768-3.769c-2.078,0-3.768,1.691-3.768,3.769  c0,0.58,0.141,1.123,0.377,1.614l-6.299,6.299c-0.492-0.234-1.035-0.377-1.616-0.377c-2.077,0-3.768,1.691-3.768,3.769  s1.691,3.769,3.768,3.769c2.078,0,3.769-1.69,3.769-3.769c0-0.581-0.142-1.123-0.378-1.614l6.299-6.3  c0.493,0.235,1.036,0.377,1.616,0.377s1.123-0.142,1.613-0.378l2.531,2.531c-0.234,0.492-0.377,1.035-0.377,1.615  c0,2.078,1.691,3.769,3.77,3.769c2.076,0,3.768-1.691,3.768-3.769c0-0.58-0.142-1.123-0.378-1.613l7.685-7.684  c1.148,0.862,2.513,1.446,4,1.661v22.918c-2.961-1.72-6.388-2.721-10.051-2.721c-6.004,0-11.388,2.661-15.074,6.85v-5.594H36v15.074  h2.879c-0.156,0.819-0.25,1.66-0.303,2.512H3.34V12.019z M53.586,24.58c0.691,0,1.256,0.563,1.256,1.255  c0,0.694-0.564,1.257-1.256,1.257c-0.693,0-1.258-0.563-1.258-1.257C52.328,25.143,52.893,24.58,53.586,24.58 M44.793,18.299  c0-0.694,0.563-1.257,1.256-1.257c0.691,0,1.256,0.563,1.256,1.257c0,0.693-0.564,1.256-1.256,1.256  C45.356,19.556,44.793,18.992,44.793,18.299 M36,29.604c0,0.693-0.564,1.256-1.257,1.256c-0.691,0-1.255-0.563-1.255-1.256  c0-0.693,0.564-1.256,1.255-1.256C35.436,28.349,36,28.911,36,29.604 M58.609,68.545c-5.539,0-10.049-4.509-10.049-10.05  s4.51-10.049,10.049-10.049c5.541,0,10.051,4.508,10.051,10.049S64.15,68.545,58.609,68.545 M41.023,48.787  c-0.601,1.085-1.099,2.232-1.493,3.428h-1.019V42.166h2.512V48.787z M57.354,40.974v5.024c-6.339,0.633-11.305,5.995-11.305,12.497  c0,1.839,0.406,3.58,1.119,5.155l-4.358,2.516c-1.132-2.32-1.786-4.919-1.786-7.671C41.023,49.223,48.242,41.622,57.354,40.974   M58.609,76.081c-6.047,0-11.39-3.068-14.556-7.73l4.375-2.527c2.284,3.163,5.991,5.233,10.181,5.233  c4.191,0,7.898-2.07,10.182-5.233l4.375,2.527C70,73.013,64.656,76.081,58.609,76.081 M74.41,66.166l-4.357-2.516  c0.711-1.575,1.119-3.316,1.119-5.155c0-6.502-4.967-11.866-11.305-12.497v-5.024c9.109,0.648,16.328,8.249,16.328,17.521  C76.195,61.247,75.543,63.846,74.41,66.166"></path><path fill="#008F4C" d="M58.609,50.958c-4.156,0-7.537,3.381-7.537,7.538c0,4.156,3.381,7.536,7.537,7.536  c4.158,0,7.537-3.38,7.537-7.536C66.146,54.339,62.768,50.958,58.609,50.958 M58.609,63.52c-2.771,0-5.023-2.253-5.023-5.023  c0-2.771,2.253-5.025,5.023-5.025c2.771,0,5.024,2.254,5.024,5.025C63.634,61.267,61.381,63.52,58.609,63.52"></path><rect x="5.853" y="14.531" fill="#008F4C" width="2.512" height="2.512"></rect><rect x="10.877" y="14.531" fill="#008F4C" width="17.586" height="2.512"></rect><rect x="5.853" y="19.555" fill="#008F4C" width="2.512" height="2.513"></rect><rect x="10.877" y="19.555" fill="#008F4C" width="17.586" height="2.513"></rect><rect x="5.853" y="24.58" fill="#008F4C" width="2.512" height="2.512"></rect><rect x="10.877" y="24.58" fill="#008F4C" width="17.586" height="2.512"></rect><rect x="5.853" y="29.604" fill="#008F4C" width="2.512" height="2.512"></rect><rect x="10.877" y="29.604" fill="#008F4C" width="17.586" height="2.512"></rect><path fill="#008F4C" d="M5.853,54.727h7.537V42.166H5.853V54.727z M8.365,44.678h2.512v7.537H8.365V44.678z"></path><path fill="#008F4C" d="M15.901,54.727h7.537V44.678h-7.537V54.727z M18.414,47.189h2.512v5.024h-2.512V47.189z"></path><path fill="#008F4C" d="M25.951,54.727h7.537V34.629h-7.537V54.727z M28.463,37.141h2.512v15.074h-2.512V37.141z"></path></svg>