<svg xmlns="http://www.w3.org/2000/svg" id="Layer_2" data-name="Layer 2" viewBox="0 0 441.91 309.081"><path d="M40.479,216.066H15.771v17.188H38.477v12.793H15.771v27.2H0V203.225H40.479Z" style="fill:#343233"></path><path d="M81.592,274.465q-15.04,0-24.512-9.79t-9.473-25.513q0-16.6,9.62-26.855t25.488-10.254q14.989,0,24.243,9.814t9.253,25.879q0,16.5-9.595,26.611T81.592,274.465Zm.683-58.838a15.875,15.875,0,0,0-13.183,6.225q-4.884,6.226-4.883,16.48,0,10.4,4.883,16.455a15.643,15.643,0,0,0,12.793,6.055,15.8,15.8,0,0,0,12.939-5.884q4.785-5.883,4.785-16.333,0-10.888-4.638-16.943A15.125,15.125,0,0,0,82.275,215.627Z" style="fill:#343233"></path><path d="M186.572,273.244H168.457l-10.889-18.017q-1.221-2.052-2.343-3.663a20.372,20.372,0,0,0-2.271-2.758,9.047,9.047,0,0,0-2.392-1.758,6.09,6.09,0,0,0-2.71-.611H143.6v26.807H127.832V203.225h25q25.488,0,25.488,19.043a19.73,19.73,0,0,1-1.123,6.762,18.764,18.764,0,0,1-3.174,5.591,20.107,20.107,0,0,1-4.956,4.3,25.555,25.555,0,0,1-6.469,2.832v.195a10.067,10.067,0,0,1,3.027,1.587,21.7,21.7,0,0,1,2.832,2.564,35.747,35.747,0,0,1,2.612,3.149q1.245,1.684,2.271,3.3Zm-42.968-58.2v19.482h6.835a11.336,11.336,0,0,0,8.155-2.929,9.78,9.78,0,0,0,3.125-7.373q0-9.178-10.987-9.18Z" style="fill:#343233"></path><path d="M203.064,245.568H188.829V231.54h14.235Z" style="fill:#343233"></path><path d="M230.436,249.123v24.121H214.664V203.225h24.707q26.465,0,26.465,22.314a21.409,21.409,0,0,1-7.593,17.065q-7.593,6.519-20.288,6.519Zm0-33.789V237.16h6.2q12.6,0,12.6-11.035,0-10.79-12.6-10.791Z" style="fill:#343233"></path><path d="M317.789,273.244h-41.7V203.225h15.771v57.226h25.928Z" style="fill:#343233"></path><path d="M390.982,273.244H373.8l-4.981-15.576h-24.9l-4.932,15.576H321.891l25.488-70.019h18.7ZM365.2,245.559l-7.519-23.536a30.556,30.556,0,0,1-1.172-6.3h-.391a26.724,26.724,0,0,1-1.221,6.1l-7.617,23.731Z" style="fill:#343233"></path><path d="M441.91,216.066H421.939v57.178h-15.82V216.066H386.246V203.225H441.91Z" style="fill:#343233"></path><path d="M59.976,289.759H51.69V297.1h7.664v2.234H51.69v9.395H49.205V287.51H59.976Z" style="fill:#343233"></path><path d="M75.582,309.081a9.309,9.309,0,0,1-7.228-2.975,11.031,11.031,0,0,1-2.714-7.737,11.69,11.69,0,0,1,2.766-8.167,9.668,9.668,0,0,1,7.531-3.048,9.107,9.107,0,0,1,7.08,2.959,11.074,11.074,0,0,1,2.685,7.739,11.724,11.724,0,0,1-2.752,8.21A9.486,9.486,0,0,1,75.582,309.081ZM75.76,289.4a6.839,6.839,0,0,0-5.43,2.412,10.724,10.724,0,0,0-.052,12.642,6.634,6.634,0,0,0,5.3,2.39,6.968,6.968,0,0,0,5.5-2.279,9.311,9.311,0,0,0,2.012-6.377,9.739,9.739,0,0,0-1.953-6.495A6.7,6.7,0,0,0,75.76,289.4Z" style="fill:#343233"></path><path d="M108.112,308.726h-2.959l-3.55-5.948a13.068,13.068,0,0,0-.947-1.413,5.388,5.388,0,0,0-.939-.954,3.242,3.242,0,0,0-1.036-.54,4.264,4.264,0,0,0-1.25-.171H95.389v9.026H92.9V287.51h6.332a9.055,9.055,0,0,1,2.568.347,5.74,5.74,0,0,1,2.042,1.058,4.921,4.921,0,0,1,1.353,1.769,5.867,5.867,0,0,1,.489,2.477,5.985,5.985,0,0,1-.333,2.034,5.332,5.332,0,0,1-.948,1.651,5.751,5.751,0,0,1-1.479,1.235,7.552,7.552,0,0,1-1.946.791v.06a4.373,4.373,0,0,1,.925.54,5.109,5.109,0,0,1,.747.716,9.62,9.62,0,0,1,.7.94q.348.525.777,1.221ZM95.389,289.759v7.693h3.374a5.125,5.125,0,0,0,1.723-.281,3.976,3.976,0,0,0,1.368-.807,3.642,3.642,0,0,0,.9-1.287,4.307,4.307,0,0,0,.325-1.709,3.324,3.324,0,0,0-1.1-2.655,4.73,4.73,0,0,0-3.188-.954Z" style="fill:#343233"></path><path d="M125.3,308.726H114.058V287.51h10.77v2.249h-8.285v7.056h7.664v2.235h-7.664v7.427H125.3Z" style="fill:#343233"></path><path d="M131.424,307.867v-2.929a5.676,5.676,0,0,0,1.206.8,9.671,9.671,0,0,0,1.479.6,11.777,11.777,0,0,0,1.561.378,8.776,8.776,0,0,0,1.45.133,5.683,5.683,0,0,0,3.425-.851,3.192,3.192,0,0,0,.755-3.943,4.27,4.27,0,0,0-1.043-1.161,10.359,10.359,0,0,0-1.576-1.006q-.91-.482-1.96-1.014-1.112-.562-2.072-1.139a8.91,8.91,0,0,1-1.671-1.272,5.319,5.319,0,0,1-1.118-1.576,5.366,5.366,0,0,1,.23-4.586,5.458,5.458,0,0,1,1.672-1.769,7.584,7.584,0,0,1,2.359-1.035,10.848,10.848,0,0,1,2.7-.341,10.354,10.354,0,0,1,4.573.755v2.8a8.3,8.3,0,0,0-4.824-1.3,7.96,7.96,0,0,0-1.628.17,4.635,4.635,0,0,0-1.45.555,3.22,3.22,0,0,0-1.035.992,2.625,2.625,0,0,0-.4,1.479,3.05,3.05,0,0,0,.3,1.406,3.464,3.464,0,0,0,.9,1.08,8.873,8.873,0,0,0,1.442.946q.852.459,1.961,1.007,1.139.561,2.159,1.184a9.855,9.855,0,0,1,1.791,1.375,6.122,6.122,0,0,1,1.22,1.672,4.7,4.7,0,0,1,.451,2.1,5.327,5.327,0,0,1-.613,2.655,5.044,5.044,0,0,1-1.657,1.769,7.252,7.252,0,0,1-2.405.983,13.174,13.174,0,0,1-2.87.3,11.528,11.528,0,0,1-1.243-.082q-.739-.081-1.509-.236a12.382,12.382,0,0,1-1.457-.385A4.468,4.468,0,0,1,131.424,307.867Z" style="fill:#343233"></path><path d="M164.088,289.759h-6.125v18.967h-2.485V289.759h-6.111V287.51h14.721Z" style="fill:#343233"></path><path d="M185.655,308.726H182.7l-3.55-5.948a13.068,13.068,0,0,0-.947-1.413,5.388,5.388,0,0,0-.939-.954,3.252,3.252,0,0,0-1.036-.54,4.269,4.269,0,0,0-1.25-.171h-2.042v9.026h-2.486V287.51h6.332a9.055,9.055,0,0,1,2.568.347,5.74,5.74,0,0,1,2.042,1.058,4.921,4.921,0,0,1,1.353,1.769,5.867,5.867,0,0,1,.488,2.477,5.961,5.961,0,0,1-.333,2.034,5.31,5.31,0,0,1-.947,1.651,5.751,5.751,0,0,1-1.479,1.235,7.552,7.552,0,0,1-1.946.791v.06a4.373,4.373,0,0,1,.925.54,5.109,5.109,0,0,1,.747.716,9.62,9.62,0,0,1,.7.94q.348.525.777,1.221Zm-12.723-18.967v7.693h3.374a5.125,5.125,0,0,0,1.723-.281,3.976,3.976,0,0,0,1.368-.807,3.642,3.642,0,0,0,.9-1.287,4.307,4.307,0,0,0,.325-1.709,3.324,3.324,0,0,0-1.1-2.655,4.73,4.73,0,0,0-3.188-.954Z" style="fill:#343233"></path><path d="M204.813,287.51l-7,13.374v7.842h-2.485v-7.783l-6.82-13.433h2.825l4.75,9.587q.089.177.518,1.3h.044a7.763,7.763,0,0,1,.562-1.3l4.971-9.587Z" style="fill:#343233"></path><path d="M224.616,300.707v8.019h-2.485V287.51h5.829a7.691,7.691,0,0,1,5.274,1.657,5.914,5.914,0,0,1,1.872,4.675,6.428,6.428,0,0,1-2.079,4.941,7.939,7.939,0,0,1-5.614,1.924Zm0-10.948v8.7h2.6a5.819,5.819,0,0,0,3.927-1.177,4.159,4.159,0,0,0,1.354-3.321q0-4.2-4.971-4.2Z" style="fill:#343233"></path><path d="M253.139,308.726H242.131V287.51h2.485v18.967h8.523Z" style="fill:#343233"></path><path d="M276.733,308.726h-2.752l-2.249-5.948h-9l-2.116,5.948h-2.767l8.138-21.216h2.574Zm-5.814-8.182-3.329-9.04a8.559,8.559,0,0,1-.325-1.42h-.06a7.985,7.985,0,0,1-.34,1.42l-3.3,9.04Z" style="fill:#343233"></path><path d="M293.256,289.759h-6.125v18.967h-2.485V289.759h-6.111V287.51h14.721Z" style="fill:#343233"></path><path d="M310.386,289.759H302.1V297.1h7.664v2.234H302.1v9.395h-2.486V287.51h10.771Z" style="fill:#343233"></path><path d="M325.991,309.081a9.306,9.306,0,0,1-7.227-2.975,11.027,11.027,0,0,1-2.715-7.737,11.69,11.69,0,0,1,2.766-8.167,9.668,9.668,0,0,1,7.531-3.048,9.107,9.107,0,0,1,7.08,2.959,11.074,11.074,0,0,1,2.685,7.739,11.724,11.724,0,0,1-2.752,8.21A9.486,9.486,0,0,1,325.991,309.081Zm.178-19.678a6.839,6.839,0,0,0-5.43,2.412,10.722,10.722,0,0,0-.051,12.642,6.632,6.632,0,0,0,5.3,2.39,6.968,6.968,0,0,0,5.5-2.279,9.311,9.311,0,0,0,2.012-6.377,9.739,9.739,0,0,0-1.953-6.495A6.7,6.7,0,0,0,326.169,289.4Z" style="fill:#343233"></path><path d="M358.522,308.726h-2.959l-3.55-5.948a12.923,12.923,0,0,0-.947-1.413,5.388,5.388,0,0,0-.939-.954,3.242,3.242,0,0,0-1.036-.54,4.264,4.264,0,0,0-1.25-.171H345.8v9.026h-2.486V287.51h6.333a9.053,9.053,0,0,1,2.567.347,5.74,5.74,0,0,1,2.042,1.058,4.921,4.921,0,0,1,1.353,1.769,5.851,5.851,0,0,1,.489,2.477,5.985,5.985,0,0,1-.333,2.034,5.312,5.312,0,0,1-.948,1.651,5.751,5.751,0,0,1-1.479,1.235,7.559,7.559,0,0,1-1.945.791v.06a4.39,4.39,0,0,1,.924.54,5.109,5.109,0,0,1,.747.716,9.786,9.786,0,0,1,.7.94q.346.525.776,1.221ZM345.8,289.759v7.693h3.374a5.125,5.125,0,0,0,1.723-.281,3.99,3.99,0,0,0,1.369-.807,3.653,3.653,0,0,0,.9-1.287,4.307,4.307,0,0,0,.325-1.709,3.326,3.326,0,0,0-1.1-2.655,4.734,4.734,0,0,0-3.189-.954Z" style="fill:#343233"></path><path d="M386.1,308.726h-2.472V294.493q0-1.687.208-4.128h-.06a13.329,13.329,0,0,1-.635,2.057l-7.25,16.3h-1.213L367.44,292.54a12.624,12.624,0,0,1-.635-2.175h-.06q.119,1.274.118,4.157v14.2h-2.4V287.51h3.285l6.51,14.8a18.655,18.655,0,0,1,.975,2.545h.089q.636-1.748,1.022-2.605l6.642-14.735H386.1Z" style="fill:#343233"></path><path d="M158.614,159.858,177.1,117.339H161.647l18.488-42.52H164.68l17.069-39.254,41.719,95.947h39.406V131.5a35.427,35.427,0,1,0,0-70.854c-.292,0-.578.02-.868.027a31.853,31.853,0,0,0-51-28.907l5.97,13.73a17.7,17.7,0,0,1,29.472,18.948l.011,0-4.509,10.369h20.925a21.254,21.254,0,1,1,0,42.508H232.753L181.74,0,143.063,88.992h15.455l-18.488,42.52h15.455L137,174.031H288.321l-6.163-14.173H158.614Z" style="fill:#158661"></path></svg>