<?xml version="1.0" encoding="UTF-8"?>
<svg id="uuid-cb3f5071-3eb3-4412-903d-4ae76bbac4ae" data-name="Livello 2" xmlns="http://www.w3.org/2000/svg" width="785.48" height="373.38" viewBox="0 0 785.48 373.38">
  <defs>
    <style>
      .uuid-241e21d9-c97a-4153-935d-13c9cb681545 {
        fill: #fff;
      }
    </style>
  </defs>
  <g id="uuid-441e159b-187a-4089-a475-4bd208e33d10" data-name="Livello 1">
    <g id="uuid-554bf597-128d-4378-ab6a-3a37bf47898b" data-name="e7a42d62-022b-4dda-b517-6c3f675da730">
      <g id="uuid-c4d30586-0fd4-4e5d-825d-483b003d01bf" data-name="be29458f-5c5a-468d-93dc-27135a09b5c3">
        <g>
          <path class="uuid-241e21d9-c97a-4153-935d-13c9cb681545" d="M270.91,254.39c.27,4.55-.69,8-2.94,10.49-3,3.37-8.34,5.14-16.76,5.57-6.07,.31-13.1-3.15-15-7.39-1.17-2.57-.44-5.26,2.18-8,2.13-2.23,7.19-4.77,10.27-3.68,.71,.25,2.38,2.32,2.27,3.54,0,.13,0,.34-.78,.47-.92,.12-1.57,.96-1.46,1.88,.12,.92,.96,1.57,1.88,1.46,.05,0,.09-.01,.14-.02,1.89-.13,3.41-1.61,3.57-3.5,.22-2.7-2.34-6.22-4.5-7-4.63-1.62-11,1.59-13.81,4.53-3.56,3.72-4.56,7.88-2.81,11.72,2.84,6.2,11.69,9.67,18.26,9.33,2.69-.11,5.37-.45,8-1l4.82,19c-14,5.52-28.8,2.56-40.25-.71-8.13-2.31-14-14.09-14.67-18.39-1.46-10.06,0-16.35,5.91-25.9,6.83-11,13.94-14.86,28.19-15.4,12.5-.39,26.58,8.22,27.49,23.01Z"/>
          <path class="uuid-241e21d9-c97a-4153-935d-13c9cb681545" d="M541.59,46.14c14.14,.69,22.54,15.58,22.76,28.16,6.65-4.64,8-13,15.7-17.14,7.9-4.27,18.55-5.94,27.24-8.38,6.78-1.9,13.87-2.64,20.78-4-11.34,17.73-23.93,49-47.32,53.68-5.51,1.09-10.53,.84-14.22-3.06-1.35-1.43-1.8-2.93-3.55-4-10.27,7.35,3.85,28.18,10,34.23-2.77,3.22-7.14,2-6,3.16-.7-6.36-4.74-11.92-8.41-16.94-1.6-2.36-2.88-4.92-3.78-7.63-1-2.71,1-8.5,.79-11.26-2.24,1.39-8,6.74-10.08,8.83-3.99,3.94-8.76,7.01-14,9-7.69,3-23.38,7.8-31.3,4.4,1.22-8.53,5.34-16.22,8.51-24.11,1.88-4.68,3.32-10.13,8.17-12.39,9.54-4.45,23.78,1,32.47,3.82-.87-6.51-8.64-11-11.09-16.9-1.15-2.79-2.66-6.49-2.13-9.59,.66-3.87,4.06-5.66,5.2-8.91l.26-.97Z"/>
          <path class="uuid-241e21d9-c97a-4153-935d-13c9cb681545" d="M326.92,34.37c-6.23-3.79-20.91-5.16-28.72-6.11-12.14-1.47-21.42-1.29-33.46,1.37-11,2.43-17.28,10.32-23.91,19.05-5.26-6.32-8.72-9.89-10.73-18.52-1.77-7.58-1.89-8-10.11-10-5-1.18-10.1-1.92-15.24-2.2,1.33,9.56,7.51,15.84,11.86,18.13,8.1,4.27,9.45,7.71,14.1,14.85-14.26-.52-25.85-7.41-39.92-8.43-23.73-1.72-57.74,4.3-76.54,19.15,6.13,7.58,23.39,10.86,32.4,12.67,7.23,1.45,14.2,3.34,21.57,4.14,12.17,1.33,24.61,3.21,36.49,1.62,8.29-1.1,14.08-.93,20.86-5.31,7-4.54,7.74-2.44,16.56-.89-2.41,4.69,2.79,9.47,2.43,14.93-.48,7.23-1.52,14.26-.06,21.37,9.66,2.37,23.35-6.16,32.5-9.15,6.25-2,13.17-4.17,19.62-4.27-1-6.64-13-17.35-19.33-19.55-5.54-1.93-12.56-1.06-17.12-4.94,16.09-2.38,39.25-3.5,51.51-15.1,7-6.67,12.26-15.08,17-23.17"/>
          <path class="uuid-241e21d9-c97a-4153-935d-13c9cb681545" d="M554.23,275.44c-4.22,4.07-32.86,12.82-40.35,14.31-22.48,4.47-47.39,3.41-69.12-7.83-13.71-7.09-27-21.59-41.31-25.25-16.63-4.26-33.41,22.59-50.24,20.11,1.6-9.58,13.39-28.4,13.9-34.33,.42-4.9,.9-10.66,.85-15.59-.06-6.2-1.8-11.76-1.08-18.11,15.87,20.72,20.74,30.43,41.77,35.92,14.44,3.78,26.83,.94,41.66-3.31,11.79-3.38,22.87-8.84,34.65-8,6.07,.43,21.69,5.57,34.39,11.56,4.84,2.28,9.64,6.08,14.3,10.63,7.56,7.44,20.58,19.89,20.58,19.89Z"/>
          <path class="uuid-241e21d9-c97a-4153-935d-13c9cb681545" d="M428.83,77.2c13.82-9.66,29.27-32.28,24.3-49.78C446.68,4.71,428.63-1,407.86,.14c-17.06,.94-34.31,3.71-46,17.42-12.95,15.15-3.93,39.36,6.71,54.05,9.78,13.49,20.58,12,34.59,9.38,7.27-1.37,19.05,1.12,23.86-3.52"/>
          <path class="uuid-241e21d9-c97a-4153-935d-13c9cb681545" d="M314.77,217.46c-14.08,9.81-14.29,38-9.19,52.78,4.57,13.28,25.23,62.51,32.23,31.84,3.43-15-3.5-41.42-8.27-55.61-3.57-10.59-13.89-20-16.2-31.89"/>
          <g>
            <path class="uuid-241e21d9-c97a-4153-935d-13c9cb681545" d="M103.72,194.82l-2.72,38.48H0v-6.53c1.44-.12,3.52-.33,6.25-.64,1.96-.12,3.89-.5,5.75-1.14,1.66-.67,3.05-1.9,3.91-3.47,.88-1.82,1.3-3.82,1.22-5.84V122.92c.05-1.88-.29-3.74-1-5.48-.86-1.74-2.33-3.11-4.13-3.83-1.86-.91-3.8-1.63-5.81-2.14-2.02-.61-4.09-1.03-6.19-1.24v-6.52H54.67v6.52c-2.24,.13-4.46,.44-6.65,.92-2,.36-3.98,.85-5.93,1.45-1.9,.57-3.45,1.94-4.27,3.74-.77,1.79-1.16,3.71-1.15,5.66v87c-.06,3.13,.14,6.26,.6,9.36,.27,1.97,1.24,3.78,2.73,5.1,1.85,1.26,4,2,6.24,2.15,3.85,.38,7.73,.55,11.6,.5,2.24,0,4.57-.06,7-.18,2.32-.11,4.63-.36,6.92-.73,1.99-.34,3.96-.84,5.87-1.5,1.52-.45,2.89-1.28,4-2.41,3.28-3.95,6.19-8.19,8.69-12.68,2.67-4.39,4.97-9,6.87-13.78h6.53Z"/>
            <path class="uuid-241e21d9-c97a-4153-935d-13c9cb681545" d="M153.59,233.3h-43.65v-6.08l4.35-.36c1.32-.09,2.63-.34,3.89-.73,1.58-.45,2.94-1.47,3.8-2.87,.89-1.63,1.32-3.47,1.24-5.33v-55.46c.02-1.86-.43-3.69-1.32-5.32-.89-1.62-2.15-3.01-3.68-4.06-1.56-.88-3.25-1.51-5-1.86-1.97-.5-3.98-.84-6-1v-6.07l31.8-2,1.28,1.28v73.37c-.07,1.84,.35,3.67,1.22,5.29,.88,1.46,2.26,2.55,3.87,3.1,1.27,.53,2.58,.98,3.91,1.33,1.4,.35,2.83,.58,4.27,.68l.02,6.09Zm-11.47-126.65c.04,3.37-1.18,6.62-3.43,9.13-2.09,2.5-5.2,3.93-8.46,3.89-3.11,0-6.06-1.36-8.09-3.71-2.2-2.27-3.43-5.32-3.42-8.48-.04-3.26,1.19-6.42,3.42-8.8,2.02-2.38,4.97-3.75,8.09-3.76,3.22-.1,6.34,1.18,8.55,3.53,2.15,2.18,3.35,5.13,3.34,8.2Z"/>
            <path class="uuid-241e21d9-c97a-4153-935d-13c9cb681545" d="M229.7,102.73c.08,2.49-.7,4.93-2.2,6.92-1.46,1.89-3.68,2.84-6.67,2.83-1.74,.04-3.46-.37-5-1.18-1.5-.84-2.85-1.92-4-3.2-1.27-1.41-2.41-2.94-3.39-4.56-1-1.7-1.92-3.08-2.65-4.11-4.09,.18-7.25,3.03-9.47,8.54s-3.33,14.29-3.32,26.34v9.22h23.2v8.78h-23.2v64.69c-.08,1.82,.35,3.62,1.23,5.21,.93,1.41,2.3,2.47,3.9,3,1.9,.65,3.87,1.1,5.87,1.33,2.44,.33,4.55,.55,6.32,.68v6.08h-47.7v-6.08l4.35-.36c1.32-.09,2.63-.34,3.89-.74,1.58-.44,2.94-1.47,3.8-2.87,.89-1.64,1.32-3.49,1.24-5.35v-65.6h-17.75v-8.78h17.78v-5.75c0-13.69,3.56-24.78,10.67-33.27,7.11-8.49,16.01-12.74,26.7-12.73,5.44,0,9.53,1.06,12.28,3.19,2.56,1.76,4.1,4.66,4.12,7.77Z"/>
            <path class="uuid-241e21d9-c97a-4153-935d-13c9cb681545" d="M297.66,212.24c-3.55,6.91-8.79,12.81-15.23,17.15-6.49,4.29-14.13,6.52-21.91,6.38-6.58,.14-13.11-1.17-19.12-3.84-5.25-2.39-9.88-5.96-13.53-10.44-3.62-4.55-6.32-9.78-7.93-15.37-1.76-6.03-2.64-12.29-2.61-18.58,0-5.86,.95-11.69,2.8-17.25,1.8-5.53,4.57-10.69,8.2-15.23,3.54-4.38,7.97-7.95,13-10.48,5.38-2.71,11.34-4.08,17.37-4,5.8-.15,11.58,.9,16.95,3.1,4.44,1.88,8.37,4.79,11.46,8.5,2.88,3.56,5.01,7.66,6.27,12.06,1.42,4.9,2.11,9.98,2.07,15.08v6h-59.89c-.06,5.45,.51,10.88,1.69,16.2,1.01,4.55,2.83,8.88,5.38,12.79,2.36,3.57,5.59,6.48,9.37,8.48,4.27,2.15,9.01,3.21,13.79,3.08,4.97,.13,9.88-1.19,14.11-3.81,3.95-2.54,7.77-7.12,11.45-13.74l6.31,3.92Zm-20.48-34.52c-.02-3.66-.31-7.31-.87-10.93-.42-3.37-1.36-6.65-2.78-9.74-1.33-2.71-3.3-5.06-5.75-6.83-2.77-1.87-6.06-2.79-9.4-2.65-6.4,0-11.71,2.67-15.93,8s-6.52,12.73-6.89,22.18l41.62-.03Z"/>
            <path class="uuid-241e21d9-c97a-4153-935d-13c9cb681545" d="M472.63,110.23c-1.81,.1-3.59,.43-5.31,1-1.95,.61-3.82,1.46-5.57,2.51-1.99,1.21-3.74,2.77-5.17,4.61-1.54,2.21-2.7,4.66-3.43,7.25-4.33,14.06-9.36,30.47-15.09,49.23-5.73,18.76-11.92,38.76-18.57,60h-8.45l-32.78-99.83-34,99.85h-8.08c-6.04-21.29-12.29-43.38-18.75-66.29s-10.79-38.24-13-46c-.51-1.79-1.33-3.48-2.42-5-1.21-1.58-2.68-2.93-4.35-4-1.63-1.08-3.45-1.86-5.35-2.32-1.81-.49-3.66-.83-5.53-1v-6.52h52.91v6.52c-3.97,.17-7.93,.63-11.84,1.37-3.24,.66-4.86,1.79-4.86,3.39,.02,.81,.11,1.62,.28,2.42,.18,1,.33,1.81,.45,2.41,1.4,5.33,3.89,14.19,7.46,26.58s8.84,30.89,15.81,55.51l32.36-96.41h8.95l32.69,98.35c4.4-15.11,8.19-28.32,11.37-39.61s5.81-20.96,7.89-29c1.47-5.66,2.39-9.54,2.75-11.64,.33-1.76,.52-3.55,.55-5.34,0-2.07-1.42-3.81-4.25-5.2-2.83-1.39-7.42-2.34-13.76-2.83v-6.52h47.09v6.51Z"/>
            <path class="uuid-241e21d9-c97a-4153-935d-13c9cb681545" d="M545.22,231.66c-2.86,1.02-5.37,1.85-7.53,2.49-2.39,.68-4.86,1.02-7.34,1-4.75,0-8.53-1.11-11.36-3.34s-4.64-5.5-5.43-9.82h-.57c-3.56,4.09-7.85,7.5-12.64,10.05-5.07,2.44-10.65,3.63-16.27,3.47-6.71,0-12.23-2.07-16.55-6.22-4.32-4.15-6.48-9.57-6.48-16.26-.05-3.17,.44-6.32,1.46-9.32,.95-2.73,2.43-5.24,4.35-7.4,1.69-1.98,3.72-3.63,6-4.89,2.25-1.31,4.59-2.46,7-3.43,2.73-1.03,8.26-2.94,16.57-5.75s13.93-5,16.84-6.58v-9c-.08-1.52-.24-3.02-.5-4.52-.33-2.22-1.05-4.36-2.12-6.33-1.26-2.29-3.01-4.28-5.11-5.83-2.21-1.66-5.34-2.49-9.37-2.49-2.64-.02-5.27,.45-7.74,1.4-1.85,.62-3.56,1.62-5,2.93,.09,1.8,.38,3.58,.87,5.32,.55,2.12,.84,4.3,.87,6.49-.07,2.25-1.13,4.36-2.89,5.77-1.93,1.74-4.6,2.62-8,2.62-3.06,0-5.31-1.08-6.74-3.25-1.43-2.15-2.18-4.67-2.15-7.25,.06-2.92,1.1-5.74,2.95-8,2.15-2.71,4.75-5.03,7.69-6.85,3.1-1.86,6.43-3.32,9.91-4.33,3.68-1.16,7.51-1.76,11.37-1.78,4.46-.07,8.92,.27,13.32,1,3.75,.68,7.29,2.23,10.33,4.53,3.14,2.36,5.57,5.54,7,9.2,1.61,3.87,2.41,8.87,2.41,15,0,8.73-.07,16.47-.22,23.2-.15,6.73-.22,14.1-.23,22.09-.09,1.97,.33,3.92,1.22,5.68,.92,1.5,2.22,2.73,3.76,3.57,1.34,.64,2.81,.96,4.3,.91,1.96,.06,3.96,.09,6,.09l.02,5.83Zm-31.76-48.31c-5.15,1.53-9.67,3.02-13.54,4.49-3.8,1.43-7.42,3.28-10.81,5.51-2.88,1.93-5.33,4.44-7.18,7.38-1.81,3.06-2.73,6.58-2.63,10.14,0,5.08,1.31,8.81,3.94,11.2,2.75,2.43,6.33,3.71,10,3.58,4.01,.08,7.95-1.02,11.33-3.17,3.15-2.01,5.94-4.54,8.24-7.48l.65-31.65Z"/>
            <path class="uuid-241e21d9-c97a-4153-935d-13c9cb681545" d="M602.59,229.54c-3.94,1.63-7.67,3-11.18,4.11-4.19,1.2-8.55,1.77-12.91,1.67-7.52,0-12.81-1.91-15.87-5.72-3.06-3.81-4.59-9.2-4.59-16.16v-61.14h-16.2v-8.78h16.57v-28.12h16.58v28.12h25.61v8.78h-25.46v50.63c-.03,3.17,.11,6.35,.41,9.51,.22,2.33,.9,4.59,2,6.66,.98,1.77,2.52,3.18,4.37,4,2.48,1.02,5.14,1.49,7.82,1.38,1.51,0,3.73-.15,6.68-.44,2.09-.12,4.16-.47,6.17-1.05v6.55Z"/>
            <path class="uuid-241e21d9-c97a-4153-935d-13c9cb681545" d="M647.6,235.77c-13.1,0-23.35-4.33-30.75-13-7.4-8.67-11.1-20.29-11.11-34.87-.04-6.06,.97-12.09,3-17.8,1.97-5.49,4.91-10.59,8.68-15.05,7.82-9.23,19.32-14.53,31.42-14.46,8.88,0,16.11,2.12,21.68,6.36,5.57,4.24,8.36,10.02,8.36,17.34,.06,2.85-.7,5.66-2.19,8.1-1.46,2.35-3.86,3.53-7.21,3.52-3.58,0-6.36-.91-8.34-2.73-1.84-1.5-2.94-3.73-3-6.11,.01-2.84,.38-5.68,1.09-8.43,.57-2.08,1-4.2,1.28-6.34-1.08-1.86-2.86-3.22-4.94-3.78-2.29-.67-4.67-1.01-7.06-1-2.92,0-5.8,.64-8.44,1.88-3.12,1.64-5.8,4.01-7.8,6.91-2.59,3.75-4.47,7.94-5.53,12.37-1.53,6.08-2.24,12.33-2.13,18.59,0,11.33,2.52,20.6,7.57,27.79s11.67,10.78,19.88,10.76c5.94,0,10.91-1.44,14.92-4.33,4.01-2.89,7.73-7.22,11.16-13l5.87,3.83c-3.82,6.95-9.32,12.83-16,17.09-6.05,4.05-13.14,6.26-20.41,6.36Z"/>
            <path class="uuid-241e21d9-c97a-4153-935d-13c9cb681545" d="M785.48,233.3h-44.32v-6.08c1.4-.12,2.96-.24,4.68-.36,1.43-.07,2.85-.32,4.22-.74,1.58-.45,2.94-1.48,3.81-2.88,.89-1.64,1.32-3.49,1.24-5.36v-46.43c0-6.41-1.51-11.35-4.53-14.83-2.68-3.33-6.73-5.25-11-5.22-3.01-.03-5.99,.48-8.82,1.51-2.56,.93-5,2.18-7.26,3.71-1.81,1.27-3.41,2.81-4.75,4.57-1.1,1.53-1.95,2.82-2.56,3.85v51.95c-.07,1.79,.36,3.56,1.24,5.12,.91,1.41,2.24,2.51,3.81,3.12,1.34,.61,2.73,1.07,4.17,1.37,1.56,.32,3.14,.54,4.73,.64v6.08h-44.33v-6.08c1.39-.12,2.84-.26,4.36-.41,1.29-.11,2.57-.34,3.82-.69,1.58-.45,2.94-1.48,3.82-2.87,.91-1.63,1.35-3.48,1.27-5.34V113.12c-.02-2.15-.5-4.27-1.41-6.21-.78-1.86-2.05-3.47-3.68-4.66-1.09-.78-3-1.35-5.78-1.68s-5-.57-6.68-.69v-6.07l33.37-2,1.28,1.37v62.82h.37c2-2,3.83-3.8,5.47-5.35,2-1.83,4.17-3.47,6.48-4.9,2.55-1.57,5.29-2.8,8.16-3.66,3.42-1.02,6.97-1.51,10.54-1.46,8,0,14.18,2.55,18.53,7.64s6.51,12.43,6.48,22v46.93c-.08,1.79,.31,3.58,1.15,5.17,.9,1.42,2.24,2.49,3.82,3.06,1.25,.49,2.53,.91,3.83,1.24,1.47,.32,2.97,.51,4.47,.59v6.05Z"/>
          </g>
        </g>
        <g>
          <path class="uuid-241e21d9-c97a-4153-935d-13c9cb681545" d="M263.06,364.51c3.06,1.7,6.5,2.61,10,2.63,4.84,0,7.53-2.26,7.53-5.63,0-3.12-2.08-5-7.34-6.85-6.8-2.45-11.14-6.06-11.14-12,0-6.73,5.63-11.87,14.56-11.87,3.42-.09,6.82,.62,9.92,2.08l-1.84,6.06c-2.53-1.33-5.34-2.02-8.2-2-4.77,0-6.85,2.57-6.85,5,0,3.18,2.38,4.65,7.89,6.79,7.16,2.69,10.65,6.3,10.65,12.24,0,6.61-5,12.36-15.67,12.36-3.86,.03-7.68-.85-11.14-2.57l1.63-6.24Z"/>
          <path class="uuid-241e21d9-c97a-4153-935d-13c9cb681545" d="M295,331.46h7.53v34.95h17v6.3h-24.53v-41.25Z"/>
          <path class="uuid-241e21d9-c97a-4153-935d-13c9cb681545" d="M359.39,351.66c0,13.83-8.39,21.72-19.77,21.72s-19-8.87-19-21,8-21.6,19.58-21.6c12.09,0,19.19,9.13,19.19,20.88Zm-30.79,.61c0,8.38,4.23,15.06,11.45,15.06s11.38-6.74,11.38-15.37c0-7.77-3.85-15.11-11.38-15.11s-11.45,6.91-11.45,15.42Z"/>
          <path class="uuid-241e21d9-c97a-4153-935d-13c9cb681545" d="M375.12,372.71l-13.35-41.25h8.23l5.64,18.73c1.59,5.2,2.93,10,4,15.05h.13c1.1-4.89,2.57-9.91,4.22-14.93l6-18.85h8l-14.26,41.25h-8.61Z"/>
          <path class="uuid-241e21d9-c97a-4153-935d-13c9cb681545" d="M425.53,354.41h-15.54v12.12h17.38v6.18h-24.91v-41.25h24v6.18h-16.47v10.65h15.54v6.12Z"/>
          <path class="uuid-241e21d9-c97a-4153-935d-13c9cb681545" d="M433.99,372.71v-41.25h8.57l10.65,17.69c2.64,4.45,4.98,9.07,7,13.83h.12c-.49-5.51-.68-10.83-.68-17.14v-14.38h7v41.25h-7.76l-10.77-18.12c-2.73-4.61-5.21-9.36-7.41-14.25l-.18,.06c.3,5.32,.37,10.77,.37,17.56v14.75h-6.91Z"/>
          <path class="uuid-241e21d9-c97a-4153-935d-13c9cb681545" d="M482.88,331.46v41.25h-7.53v-41.25h7.53Z"/>
          <path class="uuid-241e21d9-c97a-4153-935d-13c9cb681545" d="M499.77,360.99l-3.55,11.69h-7.77l13.22-41.25h9.6l13.41,41.25h-8.08l-3.73-11.69h-13.1Zm11.81-5.69l-3.24-10.16c-.8-2.51-1.47-5.33-2.08-7.71h-.13c-.61,2.38-1.22,5.26-1.95,7.71l-3.19,10.19,10.59-.03Z"/>
        </g>
      </g>
    </g>
  </g>
</svg>