<svg xmlns="http://www.w3.org/2000/svg" width="277.1mm" height="131.73mm" viewBox="0 0 785.49 373.39">
  <defs>
    <style>
      .a4af092c-a578-4754-98bc-44c18c8c0062 {
        fill: #f3953f;
      }

      .f3ab4674-d26f-42ac-b876-e268615991d7 {
        fill: #00853e;
      }

      .a3a8f2c3-dfee-41da-a860-c4e2002a352e {
        fill: #00a3a6;
      }

      .b3d7965a-a004-4072-a0b4-93c241b7d741 {
        fill: #e84e0f;
      }

      .a6f9725a-1fad-430f-86b3-039c63896c1c {
        fill: #194383;
      }

      .a5b59d34-c594-4782-95eb-2c32e16cfd1b {
        fill: #224383;
      }
    </style>
  </defs>
  <g id="e7a42d62-022b-4dda-b517-6c3f675da730" data-name="Livello 2">
    <g id="be29458f-5c5a-468d-93dc-27135a09b5c3" data-name="Livello 1">
      <g>
        <path class="a4af092c-a578-4754-98bc-44c18c8c0062" d="M270.91,254.4c.27,4.55-.69,8-2.94,10.49-3,3.37-8.34,5.14-16.76,5.57-6.07.31-13.1-3.15-15-7.39-1.17-2.57-.44-5.26,2.18-8,2.13-2.23,7.19-4.77,10.27-3.68.71.25,2.38,2.32,2.27,3.54,0,.13,0,.34-.78.47a1.68,1.68,0,1,0,.56,3.31,3.84,3.84,0,0,0,3.57-3.5c.22-2.7-2.34-6.22-4.5-7-4.63-1.62-11,1.59-13.81,4.53-3.56,3.72-4.56,7.88-2.81,11.72,2.84,6.2,11.69,9.67,18.26,9.33a49.21,49.21,0,0,0,8-1l4.82,19c-14,5.52-28.8,2.56-40.25-.71-8.13-2.31-14-14.09-14.67-18.39-1.46-10.06,0-16.35,5.91-25.9,6.83-11,13.94-14.86,28.19-15.4C255.92,231,270,239.61,270.91,254.4Z"/>
        <path class="f3ab4674-d26f-42ac-b876-e268615991d7" d="M541.6,46.14c14.14.69,22.54,15.58,22.76,28.16,6.65-4.64,8-13,15.7-17.14,7.9-4.27,18.55-5.94,27.24-8.38,6.78-1.9,13.87-2.64,20.78-4-11.34,17.73-23.93,49-47.32,53.68-5.51,1.09-10.53.84-14.22-3.06-1.35-1.43-1.8-2.93-3.55-4-10.27,7.35,3.85,28.18,10,34.23-2.77,3.22-7.14,2-6,3.16-.7-6.36-4.74-11.92-8.41-16.94a31,31,0,0,1-3.78-7.63c-1-2.71,1-8.5.79-11.26-2.24,1.39-8,6.74-10.08,8.83a40.17,40.17,0,0,1-14,9c-7.69,3-23.38,7.8-31.3,4.4,1.22-8.53,5.34-16.22,8.51-24.11,1.88-4.68,3.32-10.13,8.17-12.39,9.54-4.45,23.78,1,32.47,3.82-.87-6.51-8.64-11-11.09-16.9-1.15-2.79-2.66-6.49-2.13-9.59.66-3.87,4.06-5.66,5.2-8.91Z"/>
        <path class="f3ab4674-d26f-42ac-b876-e268615991d7" d="M326.92,34.37c-6.23-3.79-20.91-5.16-28.72-6.11-12.14-1.47-21.42-1.29-33.46,1.37-11,2.43-17.28,10.32-23.91,19.05-5.26-6.32-8.72-9.89-10.73-18.52-1.77-7.58-1.89-8-10.11-10a86.54,86.54,0,0,0-15.24-2.2c1.33,9.56,7.51,15.84,11.86,18.13,8.1,4.27,9.45,7.71,14.1,14.85-14.26-.52-25.85-7.41-39.92-8.43-23.73-1.72-57.74,4.3-76.54,19.15,6.13,7.58,23.39,10.86,32.4,12.67,7.23,1.45,14.2,3.34,21.57,4.14,12.17,1.33,24.61,3.21,36.49,1.62,8.29-1.1,14.08-.93,20.86-5.31,7-4.54,7.74-2.44,16.56-.89-2.41,4.69,2.79,9.47,2.43,14.93-.48,7.23-1.52,14.26-.06,21.37,9.66,2.37,23.35-6.16,32.5-9.15,6.25-2,13.17-4.17,19.62-4.27-1-6.64-13-17.35-19.33-19.55-5.54-1.93-12.56-1.06-17.12-4.94,16.09-2.38,39.25-3.5,51.51-15.1,7-6.67,12.26-15.08,17-23.17"/>
        <path class="a3a8f2c3-dfee-41da-a860-c4e2002a352e" d="M554.24,275.45c-4.22,4.07-32.86,12.82-40.35,14.31-22.48,4.47-47.39,3.41-69.12-7.83-13.71-7.09-27-21.59-41.31-25.25-16.63-4.26-33.41,22.59-50.24,20.11,1.6-9.58,13.39-28.4,13.9-34.33.42-4.9.9-10.66.85-15.59-.06-6.2-1.8-11.76-1.08-18.11,15.87,20.72,20.74,30.43,41.77,35.92,14.44,3.78,26.83.94,41.66-3.31,11.79-3.38,22.87-8.84,34.65-8,6.07.43,21.69,5.57,34.39,11.56,4.84,2.28,9.64,6.08,14.3,10.63C541.22,263,554.24,275.45,554.24,275.45Z"/>
        <path class="b3d7965a-a004-4072-a0b4-93c241b7d741" d="M428.84,77.2c13.82-9.66,29.27-32.28,24.3-49.78C446.69,4.71,428.64-1,407.87.14c-17.06.94-34.31,3.71-46,17.42-12.95,15.15-3.93,39.36,6.71,54.05,9.78,13.49,20.58,12,34.59,9.38,7.27-1.37,19.05,1.12,23.86-3.52"/>
        <path class="a6f9725a-1fad-430f-86b3-039c63896c1c" d="M314.77,217.47c-14.08,9.81-14.29,38-9.19,52.78,4.57,13.28,25.23,62.51,32.23,31.84,3.43-15-3.5-41.42-8.27-55.61-3.57-10.59-13.89-20-16.2-31.89"/>
        <g>
          <path class="a6f9725a-1fad-430f-86b3-039c63896c1c" d="M103.72,194.83,101,233.31H0v-6.53q2.16-.18,6.25-.64A21.5,21.5,0,0,0,12,225a7.79,7.79,0,0,0,3.91-3.47,12.37,12.37,0,0,0,1.22-5.84V122.92a13.6,13.6,0,0,0-1-5.48A7.87,7.87,0,0,0,12,113.61a30,30,0,0,0-5.81-2.14A32.79,32.79,0,0,0,0,110.23v-6.52H54.67v6.52a42.75,42.75,0,0,0-6.65.92,50.14,50.14,0,0,0-5.93,1.45,6.88,6.88,0,0,0-4.27,3.74A14,14,0,0,0,36.67,122V209a56,56,0,0,0,.6,9.36A8.35,8.35,0,0,0,40,223.46a12.51,12.51,0,0,0,6.24,2.15,103.6,103.6,0,0,0,11.6.5q3.36,0,7-.18a61.43,61.43,0,0,0,6.92-.73,37,37,0,0,0,5.87-1.5,9.35,9.35,0,0,0,4-2.41,82.56,82.56,0,0,0,8.69-12.68,91.54,91.54,0,0,0,6.87-13.78Z"/>
          <path class="b3d7965a-a004-4072-a0b4-93c241b7d741" d="M153.59,233.31H109.94v-6.08l4.35-.36a17,17,0,0,0,3.89-.73,6.56,6.56,0,0,0,3.8-2.87,10.23,10.23,0,0,0,1.24-5.33V162.48a10.9,10.9,0,0,0-1.32-5.32,11.78,11.78,0,0,0-3.68-4.06,16.83,16.83,0,0,0-5-1.86,36.26,36.26,0,0,0-6-1v-6.07l31.8-2,1.28,1.28v73.37a10.33,10.33,0,0,0,1.22,5.29,7.24,7.24,0,0,0,3.87,3.1,29.61,29.61,0,0,0,3.91,1.33,24.48,24.48,0,0,0,4.27.68ZM142.12,106.66a13.41,13.41,0,0,1-3.43,9.13,10.86,10.86,0,0,1-8.46,3.89,10.7,10.7,0,0,1-8.09-3.71,12.17,12.17,0,0,1-3.42-8.48,12.67,12.67,0,0,1,3.42-8.8,10.65,10.65,0,0,1,8.09-3.76,11.26,11.26,0,0,1,8.55,3.53A11.61,11.61,0,0,1,142.12,106.66Z"/>
          <path class="a6f9725a-1fad-430f-86b3-039c63896c1c" d="M229.7,102.73a10.89,10.89,0,0,1-2.2,6.92q-2.19,2.84-6.67,2.83a10.2,10.2,0,0,1-5-1.18,15.4,15.4,0,0,1-4-3.2,30,30,0,0,1-3.39-4.56c-1-1.7-1.92-3.08-2.65-4.11q-6.14.27-9.47,8.54T193,134.31v9.22H216.2v8.78H193V217a9.87,9.87,0,0,0,1.23,5.21,7.51,7.51,0,0,0,3.9,3,28.22,28.22,0,0,0,5.87,1.33q3.66.49,6.32.68v6.08h-47.7v-6.08l4.35-.36a16.4,16.4,0,0,0,3.89-.74,6.52,6.52,0,0,0,3.8-2.87,10.31,10.31,0,0,0,1.24-5.35v-65.6H158.15v-8.78h17.78v-5.75q0-20.53,10.67-33.27t26.7-12.73q8.16,0,12.28,3.19A9.53,9.53,0,0,1,229.7,102.73Z"/>
          <path class="f3ab4674-d26f-42ac-b876-e268615991d7" d="M297.66,212.25a46.14,46.14,0,0,1-15.23,17.15,38.49,38.49,0,0,1-21.91,6.38,44.66,44.66,0,0,1-19.12-3.84,37.5,37.5,0,0,1-13.53-10.44,44.43,44.43,0,0,1-7.93-15.37,64.93,64.93,0,0,1-2.61-18.58,54.56,54.56,0,0,1,2.8-17.25,48.41,48.41,0,0,1,8.2-15.23,39.5,39.5,0,0,1,13-10.48,37.46,37.46,0,0,1,17.37-4,41.89,41.89,0,0,1,16.95,3.1,30.23,30.23,0,0,1,11.46,8.5,34,34,0,0,1,6.27,12.06,52.61,52.61,0,0,1,2.07,15.08v6H235.56a71.39,71.39,0,0,0,1.69,16.2,38.91,38.91,0,0,0,5.38,12.79A25.57,25.57,0,0,0,252,222.8a29,29,0,0,0,13.79,3.08,25.54,25.54,0,0,0,14.11-3.81q5.93-3.81,11.45-13.74Zm-20.48-34.52a74.31,74.31,0,0,0-.87-10.93,33.16,33.16,0,0,0-2.78-9.74,18.5,18.5,0,0,0-5.75-6.83,15.61,15.61,0,0,0-9.4-2.65q-9.6,0-15.93,8t-6.89,22.18Z"/>
          <path class="a6f9725a-1fad-430f-86b3-039c63896c1c" d="M472.64,110.23a20.56,20.56,0,0,0-5.31,1,25.85,25.85,0,0,0-5.57,2.51,18.93,18.93,0,0,0-5.17,4.61,23.93,23.93,0,0,0-3.43,7.25q-6.5,21.09-15.09,49.23t-18.57,60h-8.45L378.27,135l-34,99.85h-8.08q-9.06-31.93-18.75-66.29t-13-46a16.24,16.24,0,0,0-2.42-5,17,17,0,0,0-4.35-4,16.8,16.8,0,0,0-5.35-2.32,32,32,0,0,0-5.53-1v-6.52H339.7v6.52a82,82,0,0,0-11.84,1.37Q323,112.6,323,115a13.65,13.65,0,0,0,.28,2.42c.18,1,.33,1.81.45,2.41q2.1,8,7.46,26.58T347,201.92l32.36-96.41h8.95L421,203.86q6.6-22.67,11.37-39.61t7.89-29q2.21-8.49,2.75-11.64a31.53,31.53,0,0,0,.55-5.34q0-3.11-4.25-5.2t-13.76-2.83v-6.52h47.09Z"/>
          <path class="b3d7965a-a004-4072-a0b4-93c241b7d741" d="M545.23,231.67q-4.29,1.53-7.53,2.49a26.23,26.23,0,0,1-7.34,1q-7.12,0-11.36-3.34T513.57,222H513a44.49,44.49,0,0,1-12.64,10.05,35.31,35.31,0,0,1-16.27,3.47q-10.07,0-16.55-6.22t-6.48-16.26a27.58,27.58,0,0,1,1.46-9.32,22.07,22.07,0,0,1,4.35-7.4,21.76,21.76,0,0,1,6-4.89,53.1,53.1,0,0,1,7-3.43q4.1-1.54,16.57-5.75t16.84-6.58v-9a38.5,38.5,0,0,0-.5-4.52,19,19,0,0,0-2.12-6.33,18.09,18.09,0,0,0-5.11-5.83q-3.32-2.49-9.37-2.49a21.12,21.12,0,0,0-7.74,1.4,14,14,0,0,0-5,2.93,24.3,24.3,0,0,0,.87,5.32,27.15,27.15,0,0,1,.87,6.49,7.72,7.72,0,0,1-2.89,5.77c-1.93,1.74-4.6,2.62-8,2.62q-4.59,0-6.74-3.25a12.83,12.83,0,0,1-2.15-7.25,13,13,0,0,1,2.95-8,29.77,29.77,0,0,1,7.69-6.85,42,42,0,0,1,9.91-4.33,38.66,38.66,0,0,1,11.37-1.78,74.18,74.18,0,0,1,13.32,1,24.42,24.42,0,0,1,10.33,4.53,21.1,21.1,0,0,1,7,9.2q2.41,5.81,2.41,15,0,13.1-.22,23.2t-.23,22.09a11.38,11.38,0,0,0,1.22,5.68,10.06,10.06,0,0,0,3.76,3.57,9.27,9.27,0,0,0,4.3.91q2.94.09,6,.09Zm-31.76-48.31q-7.73,2.29-13.54,4.49a54.68,54.68,0,0,0-10.81,5.51,24.79,24.79,0,0,0-7.18,7.38,18.91,18.91,0,0,0-2.63,10.14q0,7.62,3.94,11.2a14.35,14.35,0,0,0,10,3.58,20.42,20.42,0,0,0,11.33-3.17,32.93,32.93,0,0,0,8.24-7.48Z"/>
          <path class="f3ab4674-d26f-42ac-b876-e268615991d7" d="M602.6,229.55q-5.91,2.44-11.18,4.11a43.34,43.34,0,0,1-12.91,1.67q-11.28,0-15.87-5.72t-4.59-16.16V152.31h-16.2v-8.78h16.57V115.41H575v28.12h25.61v8.78H575.15v50.63a92.37,92.37,0,0,0,.41,9.51,17.79,17.79,0,0,0,2,6.66,9.34,9.34,0,0,0,4.37,4,18.45,18.45,0,0,0,7.82,1.38q2.26,0,6.68-.44A27.63,27.63,0,0,0,602.6,223Z"/>
          <path class="b3d7965a-a004-4072-a0b4-93c241b7d741" d="M647.61,235.78q-19.65,0-30.75-13t-11.11-34.87a52.13,52.13,0,0,1,3-17.8,48.94,48.94,0,0,1,8.68-15.05,40.88,40.88,0,0,1,31.42-14.46q13.32,0,21.68,6.36t8.36,17.34a15,15,0,0,1-2.19,8.1q-2.19,3.53-7.21,3.52-5.37,0-8.34-2.73a8.15,8.15,0,0,1-3-6.11,34.29,34.29,0,0,1,1.09-8.43,46.22,46.22,0,0,0,1.28-6.34,8.17,8.17,0,0,0-4.94-3.78,25,25,0,0,0-7.06-1,19.73,19.73,0,0,0-8.44,1.88,21.71,21.71,0,0,0-7.8,6.91,36.82,36.82,0,0,0-5.53,12.37,71.11,71.11,0,0,0-2.13,18.59q0,17,7.57,27.79t19.88,10.76q8.91,0,14.92-4.33t11.16-13l5.87,3.83a47.26,47.26,0,0,1-16,17.09A37.67,37.67,0,0,1,647.61,235.78Z"/>
          <path class="a6f9725a-1fad-430f-86b3-039c63896c1c" d="M785.49,233.31H741.17v-6.08q2.1-.18,4.68-.36a17.39,17.39,0,0,0,4.22-.74,6.63,6.63,0,0,0,3.81-2.88,10.35,10.35,0,0,0,1.24-5.36V171.46q0-9.61-4.53-14.83a14,14,0,0,0-11-5.22,25.06,25.06,0,0,0-8.82,1.51,33,33,0,0,0-7.26,3.71,21.53,21.53,0,0,0-4.75,4.57q-1.65,2.3-2.56,3.85V217a9.59,9.59,0,0,0,1.24,5.12,8,8,0,0,0,3.81,3.12,20,20,0,0,0,4.17,1.37,33.82,33.82,0,0,0,4.73.64v6.08H685.82v-6.08c1.39-.12,2.84-.26,4.36-.41a20.58,20.58,0,0,0,3.82-.69,6.7,6.7,0,0,0,3.82-2.87,10,10,0,0,0,1.27-5.34V113.12a14.91,14.91,0,0,0-1.41-6.21,11.06,11.06,0,0,0-3.68-4.66c-1.09-.78-3-1.35-5.78-1.68s-5-.57-6.68-.69V93.81l33.37-2,1.28,1.37V156h.37c2-2,3.83-3.8,5.47-5.35a43.12,43.12,0,0,1,6.48-4.9,34.54,34.54,0,0,1,8.16-3.66,35.29,35.29,0,0,1,10.54-1.46q12,0,18.53,7.64t6.48,22v46.93a10.13,10.13,0,0,0,1.15,5.17,7.54,7.54,0,0,0,3.82,3.06,31.56,31.56,0,0,0,3.83,1.24,27.89,27.89,0,0,0,4.47.59Z"/>
        </g>
      </g>
      <g>
        <path class="a5b59d34-c594-4782-95eb-2c32e16cfd1b" d="M263.06,364.52a20.79,20.79,0,0,0,10,2.63c4.84,0,7.53-2.26,7.53-5.63,0-3.12-2.08-5-7.34-6.85-6.8-2.45-11.14-6.06-11.14-12,0-6.73,5.63-11.87,14.56-11.87a21.82,21.82,0,0,1,9.92,2.08l-1.84,6.06a17.39,17.39,0,0,0-8.2-2c-4.77,0-6.85,2.57-6.85,5,0,3.18,2.38,4.65,7.89,6.79,7.16,2.69,10.65,6.3,10.65,12.24,0,6.61-5,12.36-15.67,12.36a24.5,24.5,0,0,1-11.14-2.57Z"/>
        <path class="a5b59d34-c594-4782-95eb-2c32e16cfd1b" d="M295,331.47h7.53v34.95h17v6.3H295Z"/>
        <path class="a5b59d34-c594-4782-95eb-2c32e16cfd1b" d="M359.39,351.67c0,13.83-8.39,21.72-19.77,21.72-11.63,0-19-8.87-19-21,0-12.67,8-21.6,19.58-21.6C352.29,330.8,359.39,339.92,359.39,351.67Zm-30.79.61c0,8.38,4.23,15.06,11.45,15.06s11.38-6.74,11.38-15.37c0-7.77-3.85-15.11-11.38-15.11S328.6,343.77,328.6,352.28Z"/>
        <path class="a5b59d34-c594-4782-95eb-2c32e16cfd1b" d="M375.12,372.72l-13.35-41.25H370l5.64,18.73c1.59,5.2,2.93,10,4,15.05h.13c1.1-4.89,2.57-9.91,4.22-14.93l6-18.85h8l-14.26,41.25Z"/>
        <path class="a5b59d34-c594-4782-95eb-2c32e16cfd1b" d="M425.54,354.42H410v12.12h17.38v6.18H402.47V331.47h24v6.18H410V348.3h15.54Z"/>
        <path class="a5b59d34-c594-4782-95eb-2c32e16cfd1b" d="M434,372.72V331.47h8.57l10.65,17.69a114.25,114.25,0,0,1,7,13.83h.12c-.49-5.51-.68-10.83-.68-17.14V331.47h7v41.25H458.9L448.13,354.6a143.14,143.14,0,0,1-7.41-14.25l-.18.06c.3,5.32.37,10.77.37,17.56v14.75Z"/>
        <path class="a5b59d34-c594-4782-95eb-2c32e16cfd1b" d="M482.89,331.47v41.25h-7.53V331.47Z"/>
        <path class="a5b59d34-c594-4782-95eb-2c32e16cfd1b" d="M499.78,361l-3.55,11.69h-7.77l13.22-41.25h9.6l13.41,41.25h-8.08L512.88,361Zm11.81-5.69-3.24-10.16c-.8-2.51-1.47-5.33-2.08-7.71h-.13c-.61,2.38-1.22,5.26-1.95,7.71L501,355.34Z"/>
      </g>
    </g>
  </g>
</svg>
