<svg xmlns="http://www.w3.org/2000/svg" xmlns:xlink="http://www.w3.org/1999/xlink" id="Livello_1" x="0px" y="0px" width="75px" height="72.297px" viewBox="0 0 75 72.297" xml:space="preserve"><path fill="#008F4C" d="M71.158,46.64H4.352c-0.636,0-1.151-0.516-1.151-1.151V7.479c0-2.541,2.067-4.608,4.608-4.608h59.892  c2.541,0,4.608,2.067,4.608,4.608v38.009C72.309,46.125,71.793,46.64,71.158,46.64 M5.504,44.336h64.502V7.479  c0-1.272-1.035-2.305-2.306-2.305H7.809c-1.271,0-2.305,1.033-2.305,2.305V44.336z"></path><path fill="#008F4C" d="M67.701,55.855H7.809c-2.541,0-4.608-2.067-4.608-4.608v-5.759c0-0.635,0.516-1.151,1.151-1.151h66.806  c0.636,0,1.151,0.517,1.151,1.151v5.759C72.309,53.788,70.242,55.855,67.701,55.855 M5.504,46.64v4.606  c0,1.272,1.034,2.305,2.305,2.305h59.892c1.271,0,2.306-1.032,2.306-2.305V46.64H5.504z"></path><path fill="#008F4C" d="M41.21,51.248h-6.911c-0.636,0-1.152-0.516-1.152-1.152c0-0.635,0.517-1.151,1.152-1.151h6.911  c0.636,0,1.15,0.517,1.15,1.151C42.361,50.732,41.846,51.248,41.21,51.248"></path><path fill="#008F4C" d="M66.55,46.64H8.959c-0.636,0-1.152-0.517-1.152-1.151V8.629c0-0.635,0.517-1.152,1.152-1.152H66.55  c0.636,0,1.152,0.517,1.152,1.152v36.859C67.703,46.124,67.186,46.64,66.55,46.64 M10.111,44.336h55.288V9.781H10.111V44.336z"></path><path fill="#008F4C" d="M52.729,69.677H22.782c-1.905,0-3.456-1.551-3.456-3.455c0-1.906,1.551-3.457,3.456-3.457h29.947  c1.904,0,3.455,1.551,3.455,3.457C56.184,68.126,54.633,69.677,52.729,69.677 M22.782,65.07c-0.637,0-1.152,0.517-1.152,1.152  c0,0.633,0.516,1.151,1.152,1.151h29.947c0.636,0,1.151-0.519,1.151-1.151c0-0.636-0.516-1.152-1.151-1.152H22.782z"></path><path fill="#008F4C" d="M50.424,65.07h-25.34c-0.636,0-1.151-0.516-1.151-1.152c0-0.636,0.516-1.152,1.151-1.152  c3.822,0,5.759-2.711,5.759-8.063c0-0.636,0.517-1.152,1.152-1.152h11.519c0.636,0,1.151,0.517,1.151,1.152  c0,5.352,1.938,8.063,5.759,8.063c0.637,0,1.152,0.517,1.152,1.152C51.577,64.554,51.061,65.07,50.424,65.07 M30.696,62.765h14.12  c-1.419-1.57-2.255-3.91-2.422-6.91h-9.277C32.949,58.855,32.114,61.195,30.696,62.765"></path><path fill="#008F4C" d="M54.167,42.033c-0.306,0-0.6-0.12-0.814-0.338l-2.78-2.781l-1.629,1.63  c-0.287,0.287-0.705,0.399-1.097,0.304c-0.393-0.1-0.705-0.397-0.821-0.787l-3.455-11.519c-0.122-0.405-0.012-0.845,0.289-1.145  c0.299-0.299,0.737-0.411,1.145-0.289l11.519,3.456c0.388,0.117,0.687,0.428,0.785,0.821c0.1,0.393-0.016,0.81-0.303,1.097  l-1.547,1.547l2.78,2.78c0.45,0.45,0.45,1.178,0,1.629l-3.257,3.258C54.766,41.913,54.472,42.033,54.167,42.033 M50.573,36.279  c0.385,0,0.77,0.146,1.062,0.441l2.533,2.532l1.629-1.63l-2.673-2.672c-0.246-0.244-0.382-0.574-0.382-0.922  c0-0.349,0.135-0.676,0.38-0.922l0.892-0.891l-7.622-2.287l2.285,7.622l0.833-0.832C49.801,36.427,50.187,36.279,50.573,36.279"></path><path fill="#008F4C" d="M51.576,20.148h-32.25c-0.636,0-1.151-0.516-1.151-1.152v-5.759c0-0.636,0.516-1.152,1.151-1.152h32.25  c0.637,0,1.153,0.516,1.153,1.152v5.759C52.729,19.633,52.212,20.148,51.576,20.148 M20.478,17.845h29.947v-3.456H20.478V17.845z"></path><path fill="#008F4C" d="M33.148,31.667h-9.215c-0.636,0-1.15-0.516-1.15-1.152v-4.607c0-0.636,0.515-1.152,1.15-1.152h9.215  c0.635,0,1.151,0.516,1.151,1.152v4.607C34.299,31.15,33.783,31.667,33.148,31.667 M25.084,29.363h6.911v-2.304h-6.911V29.363z"></path><path fill="#008F4C" d="M46.746,36.275h-27.42c-0.636,0-1.151-0.517-1.151-1.152V13.237c0-0.636,0.516-1.152,1.151-1.152h32.251  c0.636,0,1.152,0.516,1.152,1.152v17.045c0,0.364-0.172,0.707-0.465,0.923c-0.291,0.218-0.669,0.285-1.018,0.18l-4.855-1.457  l1.458,4.862c0.105,0.35,0.038,0.727-0.18,1.02C47.454,36.103,47.111,36.275,46.746,36.275 M20.478,33.97h24.72l-1.629-5.428  c-0.122-0.406-0.011-0.845,0.29-1.146c0.299-0.299,0.738-0.411,1.145-0.289l5.422,1.627V14.39H20.478V33.97z"></path></svg>