<svg xmlns="http://www.w3.org/2000/svg" xmlns:xlink="http://www.w3.org/1999/xlink" id="Livello_1" x="0px" y="0px" width="67.667px" height="68.166px" viewBox="0 0 67.667 68.166" xml:space="preserve"><path fill="#008F4C" d="M34.776,67.251H12.951c-3.263,0-5.908-2.646-5.908-5.91c0-1.053,0.282-2.088,0.816-2.995l11.169-18.986  V24.105c0-0.662,0.537-1.199,1.198-1.199h5.993c0.662,0,1.198,0.537,1.198,1.199v15.22l12.25,18.936  c1.747,2.703,0.973,6.31-1.729,8.057C36.995,66.927,35.898,67.251,34.776,67.251 M21.425,25.303v14.382  c0,0.214-0.057,0.423-0.166,0.606L9.92,59.561c-0.984,1.672-0.427,3.823,1.245,4.808c0.541,0.318,1.158,0.486,1.786,0.485h21.825  c1.893-0.001,3.427-1.536,3.426-3.429c0-0.661-0.191-1.307-0.55-1.861l-12.44-19.227c-0.125-0.194-0.192-0.42-0.192-0.651V25.303  H21.425z"></path><path fill="#008F4C" d="M21.425,62.456h-8.326c-0.662,0.002-1.199-0.535-1.2-1.197c0-0.213,0.057-0.424,0.166-0.608l10.176-17.298  l2.066,1.214L15.193,60.06h6.232V62.456z"></path><path fill="#008F4C" d="M54.982,67.251H44.196c-3.308-0.005-5.988-2.686-5.992-5.992V42.083c0-2.648,2.146-4.795,4.793-4.795h18.681  c1.598,0.001,2.894,1.297,2.892,2.896c0,0.766-0.304,1.5-0.845,2.043l-2.749,2.748v16.283C60.971,64.565,58.29,67.246,54.982,67.251   M42.997,39.685c-1.323,0-2.396,1.074-2.396,2.398v19.176c0,1.985,1.609,3.595,3.596,3.595h10.786c1.986,0,3.597-1.609,3.597-3.595  V44.479c0-0.318,0.125-0.623,0.351-0.848l3.099-3.1c0.194-0.193,0.194-0.508,0-0.701c-0.093-0.094-0.219-0.146-0.351-0.146H42.997z"></path><path fill="#008F4C" d="M54.982,62.456h-4.794V60.06h3.596v-15.58h2.397v16.779C56.181,61.919,55.644,62.456,54.982,62.456"></path><rect x="42.998" y="44.479" fill="#008F4C" width="3.596" height="2.396"></rect><rect x="42.998" y="49.272" fill="#008F4C" width="2.397" height="2.397"></rect><rect x="42.998" y="54.067" fill="#008F4C" width="3.596" height="2.396"></rect><rect x="42.998" y="58.86" fill="#008F4C" width="2.397" height="2.397"></rect><rect x="31.013" y="58.86" fill="#008F4C" width="2.396" height="2.397"></rect><rect x="27.417" y="54.067" fill="#008F4C" width="2.397" height="2.396"></rect><path fill="#008F4C" d="M67.276,31.52c0-6.097-4.25-11.569-10.023-13.083C56.667,8.435,48.422,0.445,38.485,0.445  c-6.031,0-11.868,2.956-15.491,7.783c-0.081-0.043-0.168-0.069-0.249-0.114c-0.222-0.103-0.446-0.205-0.673-0.297  c-0.129-0.05-0.254-0.093-0.385-0.142c-0.228-0.076-0.45-0.145-0.683-0.211c-0.131-0.033-0.256-0.07-0.39-0.098  c-0.245-0.06-0.5-0.103-0.76-0.135c-0.108-0.022-0.222-0.044-0.337-0.054c-0.368-0.039-0.738-0.065-1.116-0.065  c-5.512,0-9.997,4.485-9.997,9.996c0,0.141,0.004,0.282,0.015,0.424c-4.621,2.516-7.794,7.794-7.794,13.077  c0,6.708,4.654,12.332,10.9,13.852l1.413-1.979C7.223,41.543,2.85,36.586,2.85,30.609c0-4.617,3.005-9.406,7.142-11.39l0.629-0.299  v-0.7c0-0.136,0.011-0.276,0.017-0.418l0.011-0.196l-0.011-0.205c-0.006-0.097-0.017-0.196-0.017-0.293  c0-4.285,3.489-7.779,7.78-7.779c0.341,0,0.683,0.033,1.019,0.077c0.087,0.01,0.168,0.027,0.255,0.037  c0.299,0.056,0.592,0.115,0.879,0.202c0.037,0.01,0.075,0.016,0.114,0.027c0.319,0.098,0.629,0.223,0.932,0.357  c0.076,0.033,0.153,0.071,0.229,0.108c0.265,0.136,0.53,0.284,0.786,0.446c2.137,1.389,3.557,3.791,3.557,6.525  c0,0.612,0.5,1.112,1.112,1.112c0.614,0,1.113-0.5,1.113-1.112c0-3.059-1.383-5.798-3.554-7.631  c3.184-4.166,8.431-6.808,13.643-6.808c8.604,0,15.752,6.813,16.496,15.426c-1.135-0.082-2.838-0.125-4.535,0.136  c-0.608,0.092-1.025,0.662-0.934,1.269c0.088,0.548,0.559,0.943,1.102,0.943c0.054,0,0.107-0.005,0.168-0.015  c2.468-0.375,5.045-0.022,5.201,0c5.176,0.982,9.069,5.743,9.069,11.092c0,1.303-0.237,2.549-0.649,3.712l1.939,1.164  C66.938,34.883,67.276,33.242,67.276,31.52"></path></svg>