<svg class="res_icon" id="bfc10bdb-366b-49d2-a6e6-0310975c7cda" data-name="Livello 1" xmlns="http://www.w3.org/2000/svg" width="21.84mm" height="21.87mm" viewBox="0 0 61.9 62"> <defs> <style> .addb9268-651d-4740-b08e-be740b51499a { fill: #008F4C; } </style> </defs> <g> <path class="addb9268-651d-4740-b08e-be740b51499a" d="M32,39a5,5,0,1,0,5,5,5,5,0,0,0-5-5Zm0,8a3,3,0,1,1,3-3,3,3,0,0,1-3,3Z" transform="translate(-1 -1)"></path> <rect class="addb9268-651d-4740-b08e-be740b51499a" x="30" y="4" width="8" height="2"></rect> <rect class="addb9268-651d-4740-b08e-be740b51499a" x="30" y="8" width="8" height="2"></rect> <rect class="addb9268-651d-4740-b08e-be740b51499a" x="24" y="12" width="14" height="2"></rect> <rect class="addb9268-651d-4740-b08e-be740b51499a" x="24" y="16" width="14" height="2"></rect> <rect class="addb9268-651d-4740-b08e-be740b51499a" x="24" y="20" width="14" height="2"></rect> <path class="addb9268-651d-4740-b08e-be740b51499a" d="M62.9,33V25H49v8h6V43H43V41.3l-2.5-.8,1.2-2.3-3.8-3.8-2.3,1.2L34.7,33H33V27H43V15H55v5.6l-2.3-2.3-1.4,1.4L56,24.4l4.7-4.7-1.4-1.4L57,20.6V13H43V1H27.6L21,7.6V13H7v7.6L4.7,18.3,3.3,19.7,8,24.4l4.7-4.7-1.4-1.4L9,20.6V15H21V27H31v6H29.3l-.8,2.5-2.3-1.2-3.8,3.8,1.2,2.3-2.6.9V43H9V33h6V25H1v8H7V49.1A4,4,0,1,0,12,53a4.08,4.08,0,0,0-3-3.9V45h6V57.2A2.91,2.91,0,0,0,13,60a3,3,0,0,0,6,0,2.91,2.91,0,0,0-2-2.8V45h4v1.7l2.5.8-1.2,2.3,3.8,3.8,2.3-1.2.8,2.5h5.4l.8-2.5,2.3,1.2,3.8-3.8-1.2-2.3,2.5-.8V45h4V57.2a2.91,2.91,0,0,0-2,2.8,3,3,0,0,0,6,0,2.91,2.91,0,0,0-2-2.8V45h6v4.1a4,4,0,1,0,5,3.9,4.08,4.08,0,0,0-3-3.9V33ZM27,4.5V7H24.4ZM23,9h6V3H41V25H23ZM3.1,27h10v4H3.1ZM10,53a2,2,0,1,1-2-2,2,2,0,0,1,2,2Zm6,7.9a.94.94,0,0,1-1-1,1,1,0,0,1,1-1,1,1,0,1,1,0,2ZM41,45.3l-2.3.7-.2.4c-.1.1-.1.3-.2.4l-.2.4,1.1,2.2-1.8,1.8-2.2-1.1-.4.2c-.1.1-.2.1-.4.2l-.4.2L33.3,53H30.7L30,50.7l-.4-.2a.76.76,0,0,1-.4-.2l-.4-.2-2.2,1.1-1.8-1.8,1.1-2.2-.2-.4c-.1-.1-.1-.3-.2-.4l-.2-.4L23,45.3V42.7l2.3-.8.2-.4c.1-.1.1-.3.2-.4l.2-.4-1.1-2.2,1.8-1.8,2.2,1.1.4-.2c.1-.1.2-.1.4-.2l.4-.2.8-2.3h2.6l.8,2.3.4.2a.76.76,0,0,1,.4.2l.4.2,2.2-1.1,1.8,1.8-1.1,2.2.2.4c.1.1.1.3.2.4l.2.4,2.3.8v2.6Zm7,15.6a.94.94,0,0,1-1-1,1,1,0,0,1,1-1,.94.94,0,0,1,1,1,1,1,0,0,1-1,1ZM58,53a2,2,0,1,1-2-2,2,2,0,0,1,2,2ZM51,27H61v4H51Z" transform="translate(-1 -1)"></path> </g> </svg>